<?xml version="1.0" encoding="UTF-8"?><svg id="Layer_1__1:1_" xmlns="http://www.w3.org/2000/svg" viewBox="0 0 198.91 94.63"><path id="fullLogo" d="M1.7,1.28H10.73c4.62,0,8.93,2.36,8.93,7.28,0,4.01-2.76,6.4-6.3,7.21l7.48,9.2h-5.46l-7.14-8.93h-2.12v8.93H1.7V1.28ZM6.11,12.44h4.38c2.46,0,4.55-1.25,4.55-3.74s-2.09-3.57-4.55-3.57H6.11v7.31Z" style="fill:#022d2c;"/><path id="fullLogo-2" d="M39.6,19.48c-1.08,3.57-4.18,5.93-8.53,5.93-5.32,0-9-4.04-9-9s3.87-8.96,9.06-8.96,8.86,3.88,8.86,8.73v1.35h-13.88c.4,2.6,2.29,4.38,4.99,4.38,2.06,0,3.54-.84,4.38-2.43h4.11Zm-13.28-4.96h9.54c-.64-2.29-2.43-3.57-4.72-3.57-2.43,0-4.15,1.45-4.82,3.57Z" style="fill:#022d2c;"/><path id="fullLogo-3" d="M42.42,16.48c0-5.19,3.47-9.03,8.36-9.03,2.7,0,4.79,1.21,6.13,3.07v-2.63h3.98V24.97h-3.98v-2.73c-1.35,1.92-3.47,3.17-6.2,3.17-4.85,0-8.29-3.81-8.29-8.93Zm14.39-.03c0-2.83-1.99-5.16-4.99-5.16s-5.02,2.32-5.02,5.16,1.99,5.12,5.02,5.12,4.99-2.32,4.99-5.12Z" style="fill:#022d2c;"/><path id="fullLogo-4" d="M65.48,0h4.21V24.97h-4.21V0Z" style="fill:#022d2c;"/><path id="fullLogo-5" d="M79.05,2.7c0,1.41-1.04,2.66-2.76,2.66s-2.73-1.25-2.73-2.66,1.01-2.63,2.73-2.63,2.76,1.18,2.76,2.63Zm-4.85,5.19h4.21V24.97h-4.21V7.89Z" style="fill:#022d2c;"/><path id="fullLogo-6" d="M81.36,22.14l9.34-10.48h-8.8v-3.77h14.15v3l-8.97,10.31h9.44v3.77h-15.17v-2.83Z" style="fill:#022d2c;"/><path id="fullLogo-7" d="M115.84,19.48c-1.08,3.57-4.18,5.93-8.53,5.93-5.32,0-9-4.04-9-9s3.87-8.96,9.06-8.96,8.86,3.88,8.86,8.73v1.35h-13.88c.4,2.6,2.29,4.38,4.99,4.38,2.06,0,3.54-.84,4.38-2.43h4.11Zm-13.28-4.96h9.54c-.64-2.29-2.43-3.57-4.72-3.57-2.43,0-4.15,1.45-4.82,3.57Z" style="fill:#022d2c;"/><path id="fullLogo-8" d="M8.49,63.2H4.25l2.43-6.77L0,38.97H4.48l4.28,11.9,4.25-11.9h4.38l-8.9,24.23Z" style="fill:#022d2c;"/><path id="fullLogo-9" d="M36.65,47.49c0,4.95-3.77,9-9.23,9s-9.17-4.04-9.17-9,3.71-8.96,9.17-8.96,9.23,4.04,9.23,8.96Zm-14.22,0c0,2.83,2.06,5.09,4.99,5.09s5.05-2.26,5.05-5.09-2.09-5.05-5.05-5.05-4.99,2.26-4.99,5.05Z" style="fill:#022d2c;"/><path id="fullLogo-10" d="M50.85,38.97h4.25v17.09h-4.04v-2.22c-1.21,1.82-3.1,2.66-5.05,2.66-3.88,0-6.17-2.76-6.17-6.5v-11.02h4.21v9.91c0,2.06,.98,3.77,3.27,3.77,2.46,0,3.54-1.92,3.54-3.94v-9.74Z" style="fill:#022d2c;"/><path id="fullLogo-11" d="M63.79,56.05h-4.21v-17.09h4.01v3.03c1.18-2.29,3.1-3.34,5.16-3.34,.37,0,.74,.03,.94,.07v4.01c-.27-.07-.67-.14-1.15-.14-3.37,0-4.75,2.53-4.75,5.16v8.29Z" style="fill:#022d2c;"/><path id="fullLogo-12" d="M5.71,70.4v2.66c1.35-1.85,3.47-3.1,6.17-3.1,4.85,0,8.29,3.81,8.29,8.93s-3.47,9.03-8.39,9.03c-2.49,0-4.52-1.08-5.86-2.76v9.47H1.7v-24.23H5.71Zm.07,8.53c0,2.87,1.99,5.16,4.99,5.16s4.99-2.32,4.99-5.16-1.95-5.12-4.99-5.12-4.99,2.32-4.99,5.12Z" style="fill:#022d2c;"/><path id="fullLogo-13" d="M40.9,78.92c0,4.95-3.77,9-9.23,9s-9.17-4.04-9.17-9,3.71-8.96,9.17-8.96,9.23,4.04,9.23,8.96Zm-14.22,0c0,2.83,2.06,5.09,4.99,5.09s5.05-2.26,5.05-5.09-2.09-5.05-5.05-5.05-4.99,2.26-4.99,5.05Z" style="fill:#022d2c;"/><path id="fullLogo-14" d="M53.04,75.48c-.03-1.75-1.25-2.26-2.66-2.26s-2.53,.57-2.53,1.65c0,1.18,.91,1.55,2.59,1.92l1.68,.37c3.13,.67,5.53,1.82,5.53,5.12,0,3.74-3.07,5.63-7.04,5.63-4.31,0-7.48-1.79-7.65-5.96h4.41c.03,1.95,1.38,2.7,3.1,2.7s2.86-.64,2.86-1.99c0-1.21-.94-1.62-2.36-1.95l-2.02-.47c-2.86-.67-5.39-1.68-5.39-5.02s3.1-5.26,6.87-5.26,6.64,1.75,6.91,5.53h-4.31Z" style="fill:#022d2c;"/><path id="fullLogo-15" d="M70.08,75.48c-.03-1.75-1.25-2.26-2.66-2.26s-2.53,.57-2.53,1.65c0,1.18,.91,1.55,2.59,1.92l1.68,.37c3.13,.67,5.53,1.82,5.53,5.12,0,3.74-3.07,5.63-7.04,5.63-4.31,0-7.48-1.79-7.65-5.96h4.41c.03,1.95,1.38,2.7,3.1,2.7s2.86-.64,2.86-1.99c0-1.21-.94-1.62-2.36-1.95l-2.02-.47c-2.86-.67-5.39-1.68-5.39-5.02s3.1-5.26,6.87-5.26,6.64,1.75,6.91,5.53h-4.31Z" style="fill:#022d2c;"/><path id="fullLogo-16" d="M83.06,65.21c0,1.41-1.04,2.66-2.76,2.66s-2.73-1.25-2.73-2.66,1.01-2.63,2.73-2.63,2.76,1.18,2.76,2.63Zm-4.85,5.19h4.21v17.09h-4.21v-17.09Z" style="fill:#022d2c;"/><path id="fullLogo-17" d="M86.92,62.51h4.21v10.31c1.35-1.72,3.37-2.86,5.96-2.86,4.85,0,8.29,3.81,8.29,8.93s-3.47,9.03-8.39,9.03c-2.63,0-4.72-1.18-6.07-3.03v2.59h-4.01v-24.97Zm4.08,16.41c0,2.87,1.99,5.16,4.99,5.16s4.99-2.32,4.99-5.16-1.95-5.12-4.99-5.12-4.99,2.32-4.99,5.12Z" style="fill:#022d2c;"/><path id="fullLogo-18" d="M113.68,65.21c0,1.41-1.04,2.66-2.76,2.66s-2.73-1.25-2.73-2.66,1.01-2.63,2.73-2.63,2.76,1.18,2.76,2.63Zm-4.85,5.19h4.21v17.09h-4.21v-17.09Z" style="fill:#022d2c;"/><path id="fullLogo-19" d="M117.54,62.51h4.21v24.97h-4.21v-24.97Z" style="fill:#022d2c;"/><path id="fullLogo-20" d="M131.11,65.21c0,1.41-1.04,2.66-2.76,2.66s-2.73-1.25-2.73-2.66,1.01-2.63,2.73-2.63,2.76,1.18,2.76,2.63Zm-4.85,5.19h4.21v17.09h-4.21v-17.09Z" style="fill:#022d2c;"/><path id="fullLogo-21" d="M140.03,64.36v6.03h4.21v3.77h-4.21v7.38c0,1.79,.57,2.63,2.36,2.63,.91,0,1.62-.24,2.39-.71v3.71c-.88,.44-1.89,.74-3.34,.74-4.21,0-5.63-2.46-5.63-6.03v-7.72h-2.73v-3.77h2.73v-5.05l4.21-.98Z" style="fill:#022d2c;"/><path id="fullLogo-22" d="M152.71,65.21c0,1.41-1.04,2.66-2.76,2.66s-2.73-1.25-2.73-2.66,1.01-2.63,2.73-2.63,2.76,1.18,2.76,2.63Zm-4.85,5.19h4.21v17.09h-4.21v-17.09Z" style="fill:#022d2c;"/><path id="fullLogo-23" d="M172.89,81.99c-1.08,3.57-4.18,5.93-8.53,5.93-5.32,0-9-4.04-9-9s3.87-8.96,9.06-8.96,8.86,3.88,8.86,8.73v1.35h-13.88c.4,2.6,2.29,4.38,4.99,4.38,2.06,0,3.54-.84,4.38-2.43h4.11Zm-13.28-4.96h9.54c-.64-2.29-2.43-3.57-4.72-3.57-2.43,0-4.15,1.45-4.82,3.57Z" style="fill:#022d2c;"/><path id="fullLogo-24" d="M185.45,75.48c-.03-1.75-1.25-2.26-2.66-2.26s-2.53,.57-2.53,1.65c0,1.18,.91,1.55,2.59,1.92l1.68,.37c3.13,.67,5.53,1.82,5.53,5.12,0,3.74-3.07,5.63-7.04,5.63-4.31,0-7.48-1.79-7.65-5.96h4.41c.03,1.95,1.38,2.7,3.1,2.7s2.86-.64,2.86-1.99c0-1.21-.94-1.62-2.36-1.95l-2.02-.47c-2.86-.67-5.39-1.68-5.39-5.02s3.1-5.26,6.87-5.26,6.64,1.75,6.91,5.53h-4.31Z" style="fill:#022d2c;"/><path id="fullLogo-25" d="M193.05,85.06c0-1.62,1.21-2.9,2.93-2.9s2.93,1.28,2.93,2.9-1.21,2.86-2.93,2.86-2.93-1.31-2.93-2.86Z" style="fill:#022d2c;"/></svg>