<svg width="246" height="40" viewBox="0 0 246 40" fill="none" xmlns="http://www.w3.org/2000/svg">
<path d="M47.9084 26.2858C47.9084 21.8131 51.1073 18.4067 55.5209 18.4067C56.6529 18.3884 57.7719 18.6491 58.7792 19.1657C59.7865 19.6823 60.6512 20.4389 61.297 21.3688V18.762H63.8739V33.7205H61.297V31.0842C60.6393 32.0252 59.7605 32.7902 58.7379 33.3119C57.7152 33.8335 56.58 34.0959 55.4321 34.0758C51.0777 34.076 47.9084 30.6993 47.9084 26.2858ZM61.2377 26.2562C61.2377 23.2941 59.0457 20.8948 55.9949 20.8948C52.9142 20.8948 50.7223 23.3237 50.7223 26.2562C50.7223 29.159 52.9142 31.5879 55.9949 31.5879C59.0457 31.5879 61.2377 29.1886 61.2377 26.2561V26.2562Z" fill="white"/>
<path d="M66.2822 26.2866C66.2822 21.8139 69.4811 18.4075 73.8947 18.4075C74.984 18.3882 76.0622 18.6278 77.0407 19.1068C78.0192 19.5857 78.8699 20.2902 79.5228 21.1622V11.7725H82.2478V33.7214H79.6709V31.0851C79.0132 32.0262 78.1344 32.7912 77.1116 33.3129C76.0889 33.8345 74.9537 34.0968 73.8057 34.0768C69.4515 34.0768 66.2822 30.7001 66.2822 26.2866ZM79.6117 26.257C79.6117 23.2949 77.4197 20.8957 74.3687 20.8957C71.288 20.8957 69.0961 23.3246 69.0961 26.257C69.0961 29.1599 71.288 31.5887 74.3687 31.5887C77.4197 31.5887 79.6117 29.1895 79.6117 26.2569V26.257Z" fill="white"/>
<path d="M99.7445 29.0113C98.7372 32.0326 96.0123 34.0764 92.3985 34.0764C87.8666 34.0764 84.5787 30.5516 84.5787 26.227C84.5736 25.1961 84.7733 24.1745 85.1663 23.2215C85.5593 22.2685 86.1378 21.4031 86.8681 20.6755C87.5984 19.9479 88.4659 19.3727 89.4204 18.9833C90.3749 18.5939 91.3973 18.398 92.4281 18.407C96.9601 18.407 100.13 21.8135 100.13 26.0492V26.9971H87.2741C87.6 29.7518 89.6437 31.7364 92.4281 31.7364C94.5313 31.7364 96.2195 30.6995 97.0489 29.0113H99.7445ZM87.4223 24.7459H97.3748C96.7527 22.1689 94.7682 20.7471 92.4281 20.7471C89.9104 20.7471 88.0147 22.4058 87.4223 24.7459Z" fill="white"/>
<path d="M105.185 33.7228H102.46V18.7642H105.067V21.5486C106.104 19.564 107.851 18.5569 109.865 18.5569C110.123 18.5571 110.381 18.5769 110.635 18.6161V21.1931C110.361 21.1554 110.084 21.1356 109.806 21.1339C106.696 21.1339 105.185 23.4147 105.185 25.8732V33.7228Z" fill="white"/>
<path d="M126.767 26.2276C126.767 30.5522 123.42 34.077 118.799 34.077C114.148 34.077 110.831 30.5522 110.831 26.2276C110.831 21.9326 114.149 18.4077 118.799 18.4077C123.42 18.4077 126.767 21.9326 126.767 26.2276ZM113.526 26.2276C113.532 27.2691 113.846 28.2856 114.429 29.1487C115.012 30.0119 115.838 30.6831 116.802 31.0777C117.766 31.4722 118.825 31.5724 119.846 31.3656C120.866 31.1589 121.803 30.6544 122.538 29.9158C123.272 29.1773 123.771 28.2378 123.972 27.2158C124.173 26.1939 124.067 25.1353 123.667 24.1736C123.267 23.2118 122.592 22.3901 121.725 21.8121C120.859 21.234 119.84 20.9255 118.799 20.9255C118.102 20.9188 117.411 21.0516 116.766 21.3161C116.122 21.5805 115.537 21.9713 115.045 22.4654C114.554 22.9594 114.166 23.5468 113.906 24.193C113.645 24.8391 113.516 25.5309 113.526 26.2276Z" fill="white"/>
<path d="M136.872 18.7618V21.3388C137.534 20.4137 138.411 19.6633 139.427 19.1525C140.444 18.6416 141.569 18.3856 142.707 18.4065C147.061 18.4065 150.23 21.7833 150.23 26.1967C150.23 30.6694 147.031 34.0758 142.618 34.0758C141.529 34.0951 140.451 33.8555 139.472 33.3766C138.494 32.8977 137.643 32.1932 136.99 31.3211V40.0001H134.265V18.7618H136.872ZM136.901 26.2262C136.901 29.1883 139.093 31.5876 142.144 31.5876C145.225 31.5876 147.417 29.1587 147.417 26.2262C147.417 23.3234 145.225 20.8945 142.144 20.8945C139.093 20.8946 136.901 23.2939 136.901 26.2263V26.2262Z" fill="white"/>
<path d="M151.643 26.2858C151.643 21.8131 154.841 18.4067 159.255 18.4067C160.387 18.3884 161.506 18.6491 162.513 19.1657C163.521 19.6823 164.385 20.4389 165.031 21.3688V18.762H167.608V33.7205H165.031V31.0842C164.373 32.0252 163.495 32.7902 162.472 33.3119C161.449 33.8335 160.314 34.0959 159.166 34.0758C154.812 34.076 151.643 30.6993 151.643 26.2858ZM164.972 26.2562C164.972 23.2941 162.78 20.8948 159.729 20.8948C156.648 20.8948 154.456 23.3237 154.456 26.2562C154.456 29.159 156.648 31.5879 159.729 31.5879C162.78 31.5879 164.972 29.1886 164.972 26.2561V26.2562Z" fill="white"/>
<path d="M173.74 33.7228H171.015V18.7642H173.622V21.5486C174.658 19.564 176.406 18.5569 178.42 18.5569C178.678 18.5571 178.935 18.5769 179.19 18.6161V21.1931C178.915 21.1554 178.638 21.1356 178.361 21.1339C175.251 21.1339 173.74 23.4147 173.74 25.8732L173.74 33.7228Z" fill="white"/>
<path d="M185.142 13.4619V18.7639H189.052V21.1928H185.142V28.8942C185.142 30.701 185.645 31.6785 187.57 31.6785C188.361 31.6685 189.128 31.4093 189.762 30.938V33.3669C188.928 33.8552 187.974 34.1014 187.008 34.0777C183.483 34.0777 182.416 31.9154 182.416 29.0718V21.1928H179.898V18.7639H182.416V14.1135L185.142 13.4619Z" fill="white"/>
<path d="M191.272 18.7615H193.878V20.8646C194.406 20.0901 195.118 19.4596 195.951 19.0302C196.784 18.6009 197.711 18.3863 198.647 18.406C202.202 18.406 204.394 20.8349 204.394 24.2709V33.72H201.669V24.8931C201.669 22.5235 200.484 20.8943 197.966 20.8943C195.389 20.8943 193.997 22.9678 193.997 25.1597V33.7201H191.272V18.7615Z" fill="white"/>
<path d="M221.677 29.0113C220.67 32.0326 217.945 34.0764 214.331 34.0764C209.799 34.0764 206.511 30.5516 206.511 26.227C206.506 25.1961 206.706 24.1745 207.099 23.2215C207.492 22.2685 208.07 21.4031 208.801 20.6755C209.531 19.9479 210.399 19.3727 211.353 18.9833C212.308 18.5939 213.33 18.398 214.361 18.407C218.893 18.407 222.062 21.8135 222.062 26.0492V26.9971H209.207C209.533 29.7518 211.576 31.7364 214.361 31.7364C216.464 31.7364 218.152 30.6995 218.982 29.0113H221.677ZM209.355 24.7459H219.307C218.685 22.1689 216.701 20.7471 214.361 20.7471C211.843 20.7471 209.947 22.4058 209.355 24.7459Z" fill="white"/>
<path d="M227.118 33.7228H224.393V18.7642H226.999V21.5486C228.036 19.564 229.783 18.5569 231.798 18.5569C232.056 18.5571 232.313 18.5769 232.568 18.6161V21.1931C232.293 21.1554 232.016 21.1356 231.739 21.1339C228.628 21.1339 227.118 23.4147 227.118 25.8732V33.7228Z" fill="white"/>
<path d="M242.368 23.0877C242.338 21.2512 241.035 20.5997 239.317 20.5997C237.718 20.5997 236.385 21.2809 236.385 22.525C236.385 23.8875 237.51 24.243 239.169 24.6281L240.976 25.0428C243.494 25.6352 245.448 26.583 245.448 29.3081C245.448 32.448 242.872 34.077 239.554 34.077C235.911 34.077 233.245 32.5368 233.097 28.9231H235.94C236 31.0558 237.51 31.8851 239.465 31.8851C241.302 31.8851 242.694 31.1446 242.694 29.5748C242.694 28.2122 241.627 27.7383 240.206 27.4124L238.014 26.9089C235.674 26.3757 233.66 25.4871 233.66 22.7324C233.66 19.948 236.237 18.4077 239.347 18.4077C242.605 18.4077 244.974 19.8888 245.152 23.0878L242.368 23.0877Z" fill="white"/>
<path d="M27.0079 12.3232H13.5053C10.9954 12.3227 8.53507 13.0218 6.40043 14.342C4.2658 15.6621 2.54137 17.5511 1.42071 19.7969C0.300044 22.0427 -0.17249 24.5564 0.0561472 27.0558C0.284784 29.5553 1.20554 31.9415 2.71506 33.9467C4.22459 35.9519 6.26312 37.4967 8.60184 38.4076C10.9406 39.3186 13.4869 39.5597 15.955 39.1038C18.4232 38.6479 20.7154 37.5131 22.5744 35.8269C24.4334 34.1406 25.7856 31.9695 26.4792 29.5574H24.0063C23.3223 31.482 22.1227 33.1816 20.5383 34.4707C18.9539 35.7597 17.0457 36.5885 15.0222 36.8666C12.9988 37.1448 10.9377 36.8615 9.06434 36.0477C7.19093 35.234 5.57717 33.921 4.39932 32.2523C3.22148 30.5836 2.52485 28.6234 2.38552 26.5856C2.24619 24.5478 2.66952 22.511 3.60928 20.6975C4.54904 18.884 5.96907 17.3637 7.71429 16.3025C9.4595 15.2413 11.4628 14.6801 13.5053 14.6803H24.651V22.079H27.0079V12.3232Z" fill="#F6921E"/>
<path d="M12.3264 27.0051H25.829C28.3389 27.0056 30.7992 26.3066 32.9339 24.9864C35.0685 23.6663 36.7929 21.7773 37.9136 19.5315C39.0342 17.2857 39.5068 14.772 39.2781 12.2726C39.0495 9.77312 38.1287 7.38688 36.6192 5.38168C35.1097 3.37649 33.0712 1.83171 30.7325 0.920756C28.3937 0.00980089 25.8474 -0.231275 23.3793 0.224589C20.9111 0.680453 18.6189 1.81521 16.7599 3.50149C14.9009 5.18777 13.5487 7.35882 12.855 9.77094H15.328C16.012 7.84635 17.2117 6.14672 18.7961 4.8577C20.3805 3.56868 22.2886 2.73985 24.3121 2.46173C26.3356 2.18362 28.3966 2.46691 30.27 3.28067C32.1434 4.09444 33.7572 5.40737 34.935 7.07607C36.1129 8.74477 36.8095 10.7051 36.9488 12.7428C37.0881 14.7806 36.6648 16.8174 35.725 18.6309C34.7853 20.4444 33.3652 21.9647 31.62 23.0259C29.8748 24.0871 27.8715 24.6482 25.829 24.6481H14.6834V17.2494H12.3264V27.0051Z" fill="#F26F21"/>
</svg>
