<svg width="45" height="44" viewBox="0 0 45 44" fill="none" xmlns="http://www.w3.org/2000/svg">
<path d="M30.216 13.7871H15.1095C12.3015 13.7865 9.5489 14.5686 7.16071 16.0456C4.77251 17.5226 2.84324 19.636 1.58946 22.1485C0.335685 24.6611 -0.192979 27.4734 0.0628167 30.2697C0.318612 33.066 1.34874 35.7357 3.03757 37.9791C4.7264 40.2225 7.00709 41.9508 9.62362 42.9699C12.2401 43.9891 15.089 44.2588 17.8503 43.7488C20.6116 43.2388 23.1761 41.9692 25.2559 40.0826C27.3357 38.196 28.8486 35.7671 29.6246 33.0684H26.8579C26.0927 35.2216 24.7505 37.1232 22.9779 38.5653C21.2053 40.0074 19.0705 40.9347 16.8067 41.2459C14.5428 41.5571 12.237 41.2401 10.141 40.3297C8.0451 39.4193 6.23965 37.9504 4.9219 36.0835C3.60414 34.2166 2.82476 32.0234 2.66888 29.7436C2.513 27.4638 2.98662 25.185 4.03801 23.1561C5.08939 21.1272 6.67811 19.4263 8.63063 18.239C10.5831 17.0518 12.8244 16.424 15.1095 16.4241H27.5792V24.7017H30.216V13.7871Z" fill="#F6921E"/>
<path d="M13.7905 30.2129H28.897C31.705 30.2135 34.4576 29.4314 36.8458 27.9544C39.234 26.4775 41.1633 24.3641 42.4171 21.8515C43.6708 19.339 44.1995 16.5267 43.9437 13.7304C43.6879 10.934 42.6578 8.26433 40.969 6.02095C39.2801 3.77756 36.9995 2.04929 34.3829 1.03013C31.7664 0.0109651 28.9176 -0.258747 26.1563 0.251267C23.395 0.761281 20.8305 2.03083 18.7506 3.91742C16.6708 5.804 15.158 8.23294 14.3819 10.9316H17.1487C17.9139 8.77838 19.2561 6.87686 21.0287 5.43472C22.8013 3.99259 24.9361 3.06531 27.2 2.75415C29.4638 2.443 31.7696 2.75994 33.8656 3.67037C35.9615 4.58079 37.767 6.04969 39.0847 7.9166C40.4025 9.78351 41.1818 11.9767 41.3377 14.2565C41.4936 16.5363 41.0199 18.8151 39.9686 20.844C38.9172 22.8729 37.3284 24.5738 35.3759 25.761C33.4234 26.9483 31.1822 27.5761 28.897 27.5759H16.4275V19.2984H13.7905V30.2129Z" fill="#F26F21"/>
</svg>
